<?xml version="1.0" encoding="utf-8"?>
<!-- Generator: Adobe Illustrator 16.0.0, SVG Export Plug-In . SVG Version: 6.00 Build 0)  -->
<!DOCTYPE svg PUBLIC "-//W3C//DTD SVG 1.1//EN" "http://www.w3.org/Graphics/SVG/1.1/DTD/svg11.dtd">
<svg version="1.1" id="Layer_1" xmlns="http://www.w3.org/2000/svg" xmlns:xlink="http://www.w3.org/1999/xlink" x="0px" y="0px"
	 width="20px" height="20px" viewBox="0 0 20 20" enable-background="new 0 0 20 20" xml:space="preserve">
<g>
	<polygon points="13.297,20 13.297,18.75 17.868,18.75 12.675,13.559 13.559,12.675 18.75,17.868 18.75,13.297 20,13.297 20,20 	"/>
	<polygon points="12.675,6.441 17.868,1.25 13.297,1.25 13.297,0 20,0 20,6.703 18.75,6.703 18.75,2.132 13.558,7.325 	"/>
	<polygon points="1.25,2.132 1.25,6.703 0,6.703 0,0 6.705,0 6.705,1.25 2.132,1.25 7.325,6.441 6.441,7.325 	"/>
	<polygon points="0,20 0,13.297 1.25,13.297 1.25,17.868 6.441,12.675 7.324,13.558 2.13,18.75 6.705,18.75 6.705,20 	"/>
</g>
</svg>
